<?xml version="1.0" standalone="no"?>
<!DOCTYPE svg PUBLIC "-//W3C//DTD SVG 20010904//EN"
 "http://www.w3.org/TR/2001/REC-SVG-20010904/DTD/svg10.dtd">
<svg version="1.0" xmlns="http://www.w3.org/2000/svg"
 width="262.000000pt" height="186.000000pt" viewBox="0 0 262.000000 186.000000"
 preserveAspectRatio="xMidYMid meet">

<g transform="translate(0.000000,186.000000) scale(0.100000,-0.100000)"
fill="#000000" stroke="none">
<path d="M530 1491 l-164 -329 -71 -12 -72 -12 -85 -92 -85 -91 111 22 c61 12
112 20 114 18 2 -2 -6 -21 -17 -43 l-20 -39 52 -7 c29 -3 68 -6 88 -6 36 0 37
1 60 64 l22 65 71 5 c138 11 361 22 368 19 4 -2 37 -63 72 -136 35 -73 145
-296 243 -495 l179 -364 227 457 c125 251 227 459 227 461 0 2 -36 4 -80 4
l-81 0 -103 -212 c-56 -117 -120 -250 -141 -295 -21 -46 -41 -83 -44 -83 -3 1
-24 40 -46 88 -22 48 -68 148 -104 222 -35 74 -87 185 -116 247 -29 61 -50
114 -47 117 3 3 35 6 71 6 69 0 571 -33 765 -50 61 -5 195 -17 297 -26 200
-17 271 -15 149 4 -345 56 -619 90 -1185 150 l-160 17 -160 322 c-88 178 -162
325 -165 327 -3 3 -80 -143 -170 -323z m259 -156 c44 -88 81 -163 81 -167 0
-5 -72 -8 -160 -8 -88 0 -160 2 -160 4 0 3 18 44 40 91 22 47 40 88 40 89 0 9
71 158 74 155 2 -2 40 -76 85 -164z"/>
</g>
</svg>
